# xmcd
#
# Track frame offsets: 
#        150
#        38018
#        55178
#        68971
#        85163
#        90662
#        115697
#        134445
#        143042
#        158370
#
# Disc length: 2369 seconds
#
# Revision: 3
# Processed by: cddbd v1.5.2PL0 Copyright (c) Steve Scherf et al.
# Submitted via: ExactAudioCopy v1.3
#
DISCID=79093f0a
DTITLE=Stanislaw Sojka - Rocznik 59
DYEAR=2008
DGENRE=Soul
TTITLE0=Strumien
TTITLE1=Stajemy Na Progu Ksiegi
TTITLE2=Uczynil Bog
TTITLE3=Prasakrament
TTITLE4=A Kiedy Beda
TTITLE5=Omnia Nuda Et Aperta
TTITLE6=Ur W Ziemi Chaldejskiej
TTITLE7=Kto Mogl Tak...
TTITLE8=Wokolo Ludzie I Ludy...
TTITLE9=Rozmowa Ojca Z Synem
EXTD=
EXTT0=
EXTT1=
EXTT2=
EXTT3=
EXTT4=
EXTT5=
EXTT6=
EXTT7=
EXTT8=
EXTT9=
PLAYORDER=
